<svg width="20" height="20" viewBox="0 0 20 20" fill="none" xmlns="http://www.w3.org/2000/svg">
<path d="M17.5 2.5H15.2083C15.1531 2.5 15.1001 2.47805 15.061 2.43898C15.0219 2.39991 15 2.34692 15 2.29167V0.833333C15 0.61232 14.9122 0.400358 14.7559 0.244078C14.5996 0.0877974 14.3877 0 14.1667 0C13.9457 0 13.7337 0.0877974 13.5774 0.244078C13.4211 0.400358 13.3333 0.61232 13.3333 0.833333V4.79167C13.3333 4.95743 13.2675 5.1164 13.1503 5.23361C13.0331 5.35082 12.8741 5.41667 12.7083 5.41667C12.5426 5.41667 12.3836 5.35082 12.2664 5.23361C12.1492 5.1164 12.0833 4.95743 12.0833 4.79167V2.91667C12.0833 2.80616 12.0394 2.70018 11.9613 2.62204C11.8832 2.5439 11.7772 2.5 11.6667 2.5H6.45833C6.40322 2.5 6.35036 2.47817 6.31131 2.43928C6.27227 2.40039 6.25022 2.34761 6.25 2.2925V0.833333C6.25 0.61232 6.1622 0.400358 6.00592 0.244078C5.84964 0.0877974 5.63768 0 5.41667 0C5.19565 0 4.98369 0.0877974 4.82741 0.244078C4.67113 0.400358 4.58333 0.61232 4.58333 0.833333V4.79167C4.58333 4.95743 4.51749 5.1164 4.40028 5.23361C4.28306 5.35082 4.12409 5.41667 3.95833 5.41667C3.79257 5.41667 3.6336 5.35082 3.51639 5.23361C3.39918 5.1164 3.33333 4.95743 3.33333 4.79167V2.91667C3.33333 2.80616 3.28943 2.70018 3.21129 2.62204C3.13315 2.5439 3.02717 2.5 2.91667 2.5H1.66667C1.22464 2.5 0.800716 2.67559 0.488155 2.98816C0.175595 3.30072 0 3.72464 0 4.16667V18.3333C0 18.7754 0.175595 19.1993 0.488155 19.5118C0.800716 19.8244 1.22464 20 1.66667 20H17.5C17.942 20 18.3659 19.8244 18.6785 19.5118C18.9911 19.1993 19.1667 18.7754 19.1667 18.3333V4.16667C19.1667 3.72464 18.9911 3.30072 18.6785 2.98816C18.3659 2.67559 17.942 2.5 17.5 2.5ZM17.0833 18.3333H2.08333C1.97283 18.3333 1.86685 18.2894 1.78871 18.2113C1.71057 18.1332 1.66667 18.0272 1.66667 17.9167V7.91667C1.66667 7.80616 1.71057 7.70018 1.78871 7.62204C1.86685 7.5439 1.97283 7.5 2.08333 7.5H17.0833C17.1938 7.5 17.2998 7.5439 17.378 7.62204C17.4561 7.70018 17.5 7.80616 17.5 7.91667V17.9167C17.5 18.0272 17.4561 18.1332 17.378 18.2113C17.2998 18.2894 17.1938 18.3333 17.0833 18.3333Z" fill="#ACB5BF"/>
</svg>
