<svg width="8" height="9" viewBox="0 0 8 9" fill="none" xmlns="http://www.w3.org/2000/svg">
<path d="M1.26625 1.70812C1.24229 1.72174 1.22238 1.74146 1.20854 1.76529C1.19471 1.78912 1.18744 1.8162 1.1875 1.84375V7.78125C1.1875 7.8675 1.2575 7.9375 1.34375 7.9375H6.65625C6.69769 7.9375 6.73743 7.92104 6.76674 7.89174C6.79604 7.86243 6.8125 7.82269 6.8125 7.78125V1.84375C6.81256 1.8162 6.80529 1.78912 6.79146 1.76529C6.77762 1.74146 6.75771 1.72174 6.73375 1.70812C6.62617 1.6458 6.54776 1.54329 6.51576 1.42315C6.48376 1.30301 6.5008 1.17508 6.56312 1.0675C6.62545 0.959921 6.72796 0.881508 6.8481 0.84951C6.96824 0.817511 7.09617 0.834549 7.20375 0.896875C7.54188 1.0925 7.75 1.45312 7.75 1.84375V7.78125C7.75 8.07133 7.63477 8.34953 7.42965 8.55465C7.22453 8.75977 6.94633 8.875 6.65625 8.875H1.34375C1.05367 8.875 0.77547 8.75977 0.570352 8.55465C0.365234 8.34953 0.25 8.07133 0.25 7.78125V1.84375C0.25 1.45312 0.458125 1.0925 0.79625 0.896875C0.903829 0.834549 1.03176 0.817511 1.1519 0.84951C1.27204 0.881508 1.37455 0.959921 1.43687 1.0675C1.4992 1.17508 1.51624 1.30301 1.48424 1.42315C1.45224 1.54329 1.37383 1.6458 1.26625 1.70812ZM2.59375 0.125H5.40625C5.53057 0.125 5.6498 0.174386 5.73771 0.262294C5.82561 0.350201 5.875 0.46943 5.875 0.59375V2.46875C5.875 2.59307 5.82561 2.7123 5.73771 2.80021C5.6498 2.88811 5.53057 2.9375 5.40625 2.9375H2.59375C2.46943 2.9375 2.3502 2.88811 2.26229 2.80021C2.17439 2.7123 2.125 2.59307 2.125 2.46875V0.59375C2.125 0.46943 2.17439 0.350201 2.26229 0.262294C2.3502 0.174386 2.46943 0.125 2.59375 0.125ZM3.0625 2H4.9375V1.0625H3.0625V2Z" fill="#828282"/>
</svg>
