<svg width="13" height="7" viewBox="0 0 13 7" fill="none" xmlns="http://www.w3.org/2000/svg">
<path d="M5.875 6.625H3.375C2.51042 6.625 1.77354 6.32021 1.16438 5.71062C0.555208 5.10104 0.250417 4.36417 0.25 3.5C0.25 2.63542 0.554792 1.89854 1.16438 1.28938C1.77396 0.680209 2.51083 0.375417 3.375 0.375H5.875V1.625H3.375C2.85417 1.625 2.41146 1.80729 2.04688 2.17188C1.68229 2.53646 1.5 2.97917 1.5 3.5C1.5 4.02083 1.68229 4.46354 2.04688 4.82812C2.41146 5.19271 2.85417 5.375 3.375 5.375H5.875V6.625ZM4 4.125V2.875H9V4.125H4ZM7.125 6.625V5.375H9.625C10.1458 5.375 10.5885 5.19271 10.9531 4.82812C11.3177 4.46354 11.5 4.02083 11.5 3.5C11.5 2.97917 11.3177 2.53646 10.9531 2.17188C10.5885 1.80729 10.1458 1.625 9.625 1.625H7.125V0.375H9.625C10.4896 0.375 11.2267 0.679792 11.8363 1.28938C12.4458 1.89896 12.7504 2.63583 12.75 3.5C12.75 4.36458 12.4452 5.10167 11.8356 5.71125C11.226 6.32083 10.4892 6.62542 9.625 6.625H7.125Z" fill="url(#paint0_linear_25_39)" fill-opacity="0.6"/>
<defs>
<linearGradient id="paint0_linear_25_39" x1="6.5" y1="0.375" x2="6.5" y2="6.625" gradientUnits="userSpaceOnUse">
<stop stop-color="white"/>
<stop offset="1" stop-color="#999999"/>
</linearGradient>
</defs>
</svg>
