<svg width="23" height="22" viewBox="0 0 23 22" fill="none" xmlns="http://www.w3.org/2000/svg">
<path d="M21.6587 19.7302V8.93651C21.6587 8.73937 21.6128 8.54494 21.5246 8.36862C21.4365 8.19229 21.3085 8.03892 21.1508 7.92063L12.2619 1.25397C12.0421 1.08911 11.7747 1 11.5 1C11.2252 1 10.9579 1.08911 10.7381 1.25397L1.84918 7.92063C1.69147 8.03892 1.56347 8.19229 1.47531 8.36862C1.38715 8.54494 1.34125 8.73937 1.34125 8.93651V19.7302C1.34125 20.0669 1.47503 20.3899 1.71318 20.6281C1.95132 20.8662 2.27431 21 2.61109 21H7.69045C8.02724 21 8.35023 20.8662 8.58837 20.6281C8.82651 20.3899 8.9603 20.0669 8.9603 19.7302V15.9206C8.9603 15.5839 9.09408 15.2609 9.33222 15.0227C9.57037 14.7846 9.89335 14.6508 10.2301 14.6508H12.7698C13.1066 14.6508 13.4296 14.7846 13.6677 15.0227C13.9059 15.2609 14.0397 15.5839 14.0397 15.9206V19.7302C14.0397 20.0669 14.1734 20.3899 14.4116 20.6281C14.6497 20.8662 14.9727 21 15.3095 21H20.3889C20.7257 21 21.0486 20.8662 21.2868 20.6281C21.5249 20.3899 21.6587 20.0669 21.6587 19.7302Z" stroke="#0000FF" stroke-width="2" stroke-linecap="round" stroke-linejoin="round"/>
</svg>
