<svg width="12" height="6" viewBox="0 0 12 6" fill="none" xmlns="http://www.w3.org/2000/svg">
<path d="M8.74997 1.75934C8.55106 1.75934 8.36029 1.68032 8.21964 1.53967C8.07899 1.39902 7.99997 1.20825 7.99997 1.00934C7.99997 0.810426 8.07899 0.619661 8.21964 0.479009C8.36029 0.338356 8.55106 0.259338 8.74997 0.259338H11.25C11.4489 0.259338 11.6396 0.338356 11.7803 0.479009C11.921 0.619661 12 0.810426 12 1.00934V3.50934C12 3.70825 11.921 3.89902 11.7803 4.03967C11.6396 4.18032 11.4489 4.25934 11.25 4.25934C11.0511 4.25934 10.8603 4.18032 10.7196 4.03967C10.579 3.89902 10.5 3.70825 10.5 3.50934V2.81934L8.48697 4.83234C8.15882 5.16026 7.71388 5.34447 7.24997 5.34447C6.78605 5.34447 6.34112 5.16026 6.01297 4.83234L4.42697 3.24634C4.40375 3.22306 4.37616 3.20459 4.34579 3.19198C4.31541 3.17938 4.28285 3.17289 4.24997 3.17289C4.21708 3.17289 4.18452 3.17938 4.15415 3.19198C4.12378 3.20459 4.09619 3.22306 4.07297 3.24634L1.77997 5.53934C1.63779 5.67182 1.44975 5.74394 1.25545 5.74051C1.06114 5.73709 0.87576 5.65837 0.738347 5.52096C0.600934 5.38355 0.522222 5.19816 0.518794 5.00386C0.515365 4.80956 0.587488 4.62151 0.719968 4.47934L3.01297 2.18634C3.34112 1.85842 3.78605 1.67421 4.24997 1.67421C4.71388 1.67421 5.15882 1.85842 5.48697 2.18634L7.07297 3.77234C7.09619 3.79562 7.12378 3.81409 7.15415 3.82669C7.18452 3.8393 7.21708 3.84579 7.24997 3.84579C7.28285 3.84579 7.31541 3.8393 7.34579 3.82669C7.37616 3.81409 7.40375 3.79562 7.42697 3.77234L9.43897 1.75934H8.74997Z" fill="white"/>
</svg>
