<svg width="26" height="14" viewBox="0 0 26 14" fill="none" xmlns="http://www.w3.org/2000/svg">
<path d="M11.75 13.25H6.75C5.02083 13.25 3.54708 12.6404 2.32875 11.4212C1.11042 10.2021 0.500833 8.72833 0.5 7C0.5 5.27083 1.10958 3.79708 2.32875 2.57875C3.54792 1.36042 5.02167 0.750833 6.75 0.75H11.75V3.25H6.75C5.70833 3.25 4.82292 3.61458 4.09375 4.34375C3.36458 5.07292 3 5.95833 3 7C3 8.04167 3.36458 8.92708 4.09375 9.65625C4.82292 10.3854 5.70833 10.75 6.75 10.75H11.75V13.25ZM8 8.25V5.75H18V8.25H8ZM14.25 13.25V10.75H19.25C20.2917 10.75 21.1771 10.3854 21.9062 9.65625C22.6354 8.92708 23 8.04167 23 7C23 5.95833 22.6354 5.07292 21.9062 4.34375C21.1771 3.61458 20.2917 3.25 19.25 3.25H14.25V0.75H19.25C20.9792 0.75 22.4533 1.35958 23.6725 2.57875C24.8917 3.79792 25.5008 5.27167 25.5 7C25.5 8.72917 24.8904 10.2033 23.6713 11.4225C22.4521 12.6417 20.9783 13.2508 19.25 13.25H14.25Z" fill="white"/>
</svg>
