<svg width="20" height="21" viewBox="0 0 20 21" fill="none" xmlns="http://www.w3.org/2000/svg">
<path d="M10 2.16663C11.9891 2.16663 13.8968 2.9568 15.3033 4.36333C16.7098 5.76985 17.5 7.6775 17.5 9.66663C17.5 12.2283 16.1033 14.325 14.6317 15.8291C13.8963 16.5724 13.094 17.2463 12.235 17.8425L11.88 18.0841L11.7133 18.195L11.3992 18.395L11.1192 18.5658L10.7725 18.7675C10.5371 18.9015 10.2709 18.9719 10 18.9719C9.72913 18.9719 9.46291 18.9015 9.2275 18.7675L8.88083 18.5658L8.4475 18.2991L8.2875 18.195L7.94583 17.9675C7.01915 17.3402 6.15589 16.6241 5.36833 15.8291C3.89667 14.3241 2.5 12.2283 2.5 9.66663C2.5 7.6775 3.29018 5.76985 4.6967 4.36333C6.10322 2.9568 8.01088 2.16663 10 2.16663ZM10 7.16663C9.6717 7.16663 9.34661 7.23129 9.04329 7.35693C8.73998 7.48256 8.46438 7.66671 8.23223 7.89886C8.00009 8.13101 7.81594 8.4066 7.6903 8.70992C7.56466 9.01323 7.5 9.33832 7.5 9.66663C7.5 9.99493 7.56466 10.32 7.6903 10.6233C7.81594 10.9266 8.00009 11.2022 8.23223 11.4344C8.46438 11.6665 8.73998 11.8507 9.04329 11.9763C9.34661 12.102 9.6717 12.1666 10 12.1666C10.663 12.1666 11.2989 11.9032 11.7678 11.4344C12.2366 10.9656 12.5 10.3297 12.5 9.66663C12.5 9.00358 12.2366 8.3677 11.7678 7.89886C11.2989 7.43002 10.663 7.16663 10 7.16663Z" fill="#696969"/>
</svg>
