<svg width="20" height="20" viewBox="0 0 20 20" fill="none" xmlns="http://www.w3.org/2000/svg">
<path fill-rule="evenodd" clip-rule="evenodd" d="M0 3C0 1.34315 1.34315 0 3 0H6C7.65685 0 9 1.34315 9 3V6C9 7.65685 7.65685 9 6 9H3C1.34315 9 0 7.65685 0 6V3ZM3 2C2.44772 2 2 2.44772 2 3V6C2 6.55228 2.44772 7 3 7H6C6.55228 7 7 6.55228 7 6V3C7 2.44772 6.55228 2 6 2H3ZM11 3C11 1.34315 12.3431 0 14 0H17C18.6569 0 20 1.34315 20 3V6C20 7.65685 18.6569 9 17 9H14C12.3431 9 11 7.65685 11 6V3ZM14 2C13.4477 2 13 2.44772 13 3V6C13 6.55228 13.4477 7 14 7H17C17.5523 7 18 6.55228 18 6V3C18 2.44772 17.5523 2 17 2H14ZM0 14C0 12.3431 1.34315 11 3 11H6C7.65685 11 9 12.3431 9 14V17C9 18.6569 7.65685 20 6 20H3C1.34315 20 0 18.6569 0 17V14ZM3 13C2.44772 13 2 13.4477 2 14V17C2 17.5523 2.44772 18 3 18H6C6.55228 18 7 17.5523 7 17V14C7 13.4477 6.55228 13 6 13H3ZM15.5 11.5C16.0523 11.5 16.5 11.9477 16.5 12.5V14.5H18.5C19.0523 14.5 19.5 14.9477 19.5 15.5C19.5 16.0523 19.0523 16.5 18.5 16.5H16.5V18.5C16.5 19.0523 16.0523 19.5 15.5 19.5C14.9477 19.5 14.5 19.0523 14.5 18.5V16.5H12.5C11.9477 16.5 11.5 16.0523 11.5 15.5C11.5 14.9477 11.9477 14.5 12.5 14.5H14.5V12.5C14.5 11.9477 14.9477 11.5 15.5 11.5Z" fill="white"/>
</svg>
