<svg width="26" height="21" viewBox="0 0 26 21" fill="none"
    xmlns="http://www.w3.org/2000/svg">
    <path fill-rule="evenodd" clip-rule="evenodd" d="M1.26293 1.70543C-8.56387e-08 2.96693 0 4.99997 0 9.06318V11.9367C0 16 -8.56387e-08 18.033 1.26293 19.2945C2.52442 20.5574 4.55746 20.5574 8.62068 20.5574H17.2414C21.3046 20.5574 23.3376 20.5574 24.5991 19.2945C25.862 18.033 25.862 16 25.862 11.9367V9.06318C25.862 4.99997 25.862 2.96693 24.5991 1.70543C23.3376 0.442505 21.3046 0.442505 17.2414 0.442505H8.62068C4.55746 0.442505 2.52442 0.442505 1.26293 1.70543ZM5.10775 4.99422C4.79071 4.78274 4.40264 4.70585 4.02892 4.78049C3.65519 4.85513 3.32643 5.07517 3.11494 5.39221C2.90345 5.70925 2.82657 6.09732 2.90121 6.47104C2.97584 6.84477 3.19589 7.17354 3.51293 7.38502L11.3376 12.6005C11.8095 12.915 12.3639 13.0828 12.931 13.0828C13.4981 13.0828 14.0525 12.915 14.5244 12.6005L22.3491 7.38502C22.6661 7.17354 22.8862 6.84477 22.9608 6.47104C23.0355 6.09732 22.9586 5.70925 22.7471 5.39221C22.5356 5.07517 22.2068 4.85513 21.8331 4.78049C21.4594 4.70585 21.0713 4.78274 20.7543 4.99422L12.931 10.2097L5.10775 4.99422Z" fill="white"/>
</svg>
