<svg width="25" height="24" viewBox="0 0 25 24" fill="none" xmlns="http://www.w3.org/2000/svg">
<path d="M8.46286 18.8572C8.66513 18.864 8.86671 18.8301 9.05559 18.7574C9.24447 18.6847 9.41679 18.5747 9.56229 18.434C9.70779 18.2934 9.8235 18.1248 9.90253 17.9385C9.98155 17.7522 10.0223 17.5519 10.0223 17.3495C10.0223 17.1471 9.98155 16.9468 9.90253 16.7605C9.8235 16.5741 9.70779 16.4056 9.56229 16.2649C9.41679 16.1243 9.24447 16.0143 9.05559 15.9416C8.86671 15.8689 8.66513 15.8349 8.46286 15.8418C8.06276 15.8418 7.67905 16.0007 7.39613 16.2836C7.11322 16.5665 6.95428 16.9502 6.95428 17.3503C6.95428 17.7504 7.11322 18.1341 7.39613 18.4171C7.67905 18.7 8.06276 18.8589 8.46286 18.8589V18.8572ZM15.2463 16.9732C15.6464 16.9732 16.0301 16.8143 16.313 16.5313C16.5959 16.2484 16.7549 15.8647 16.7549 15.4646C16.7549 15.0645 16.5959 14.6808 16.313 14.3979C16.0301 14.115 15.6464 13.9561 15.2463 13.9561C14.8462 13.9561 14.4625 14.115 14.1796 14.3979C13.8967 14.6808 13.7377 15.0645 13.7377 15.4646C13.7377 15.8647 13.8967 16.2484 14.1796 16.5313C14.4625 16.8143 14.8462 16.9732 15.2463 16.9732Z" stroke="white" stroke-width="1.71429" stroke-linecap="round" stroke-linejoin="round"/>
<path d="M9.97137 17.3486V10.8669L16.7548 9.26917V15.468" stroke="white" stroke-width="1.71429" stroke-linecap="round" stroke-linejoin="round"/>
<path d="M1.35712 21V3.00005C1.35712 2.54539 1.53773 2.10936 1.85922 1.78786C2.18071 1.46637 2.61675 1.28576 3.0714 1.28576H9.39712C9.78872 1.27435 10.1724 1.39742 10.4843 1.63447C10.7962 1.87152 11.0175 2.20826 11.1114 2.58862L11.6428 4.71433H21.9285C22.3832 4.71433 22.8192 4.89494 23.1407 5.21644C23.4622 5.53793 23.6428 5.97396 23.6428 6.42862V21C23.6428 21.4547 23.4622 21.8907 23.1407 22.2122C22.8192 22.5337 22.3832 22.7143 21.9285 22.7143H3.0714C2.61675 22.7143 2.18071 22.5337 1.85922 22.2122C1.53773 21.8907 1.35712 21.4547 1.35712 21Z" stroke="white" stroke-width="1.71429" stroke-linecap="round" stroke-linejoin="round"/>
</svg>
