<svg width="23" height="25" viewBox="0 0 23 25" fill="none"
    xmlns="http://www.w3.org/2000/svg">
    <path d="M14.8897 21.8541C14.8899 22.4834 14.6522 23.0895 14.2243 23.551C13.7964 24.0124 13.2099 24.2951 12.5824 24.3423L12.3953 24.3485H9.90083C9.27151 24.3487 8.66538 24.1111 8.20393 23.6831C7.74248 23.2552 7.45983 22.6687 7.41263 22.0412L7.40639 21.8541H14.8897ZM11.148 0.651367C13.4117 0.65133 15.5869 1.53052 17.2148 3.10349C18.8427 4.67646 19.796 6.82022 19.8736 9.08257L19.8786 9.3819V14.0764L22.151 18.6213C22.2502 18.8196 22.2998 19.039 22.2957 19.2607C22.2915 19.4824 22.2337 19.6997 22.1271 19.8942C22.0206 20.0886 21.8685 20.2544 21.6839 20.3772C21.4993 20.5 21.2877 20.5762 21.0672 20.5994L20.9238 20.6069H1.37235C1.15055 20.6069 0.932036 20.5532 0.735542 20.4503C0.539048 20.3475 0.370429 20.1985 0.244133 20.0161C0.117838 19.8338 0.0376317 19.6236 0.0103885 19.4034C-0.0168546 19.1833 0.00967739 18.9599 0.0877108 18.7523L0.145083 18.6213L2.41752 14.0764V9.3819C2.41752 7.06642 3.33734 4.84577 4.97463 3.20848C6.61192 1.57119 8.83257 0.651367 11.148 0.651367Z" fill="white"/>
</svg>
