<svg width="21" height="20" viewBox="0 0 21 20" fill="none" xmlns="http://www.w3.org/2000/svg">
<path fill-rule="evenodd" clip-rule="evenodd" d="M6.5 3C6.5 1.34315 7.84315 0 9.5 0H11.5C13.1569 0 14.5 1.34315 14.5 3V4.17071C14.8128 4.06015 15.1494 4 15.5 4H17.5C19.1569 4 20.5 5.34315 20.5 7V17C20.5 18.6569 19.1569 20 17.5 20H3.5C1.84315 20 0.5 18.6569 0.5 17V11C0.5 9.34315 1.84315 8 3.5 8H5.5C5.85064 8 6.18722 8.06015 6.5 8.17071V3ZM8.5 18H12.5V3C12.5 2.44772 12.0523 2 11.5 2H9.5C8.94772 2 8.5 2.44772 8.5 3V18ZM14.5 18H17.5C18.0523 18 18.5 17.5523 18.5 17V7C18.5 6.44772 18.0523 6 17.5 6H15.5C14.9477 6 14.5 6.44772 14.5 7V18ZM6.5 18V11C6.5 10.4477 6.05228 10 5.5 10H3.5C2.94772 10 2.5 10.4477 2.5 11V17C2.5 17.5523 2.94772 18 3.5 18H6.5Z" fill="white"/>
</svg>
