<svg width="23" height="22" viewBox="0 0 23 22" fill="none" xmlns="http://www.w3.org/2000/svg">
<path d="M20.3844 9.46778V18.7778C20.3844 19.3671 20.1503 19.9324 19.7336 20.3491C19.3168 20.7659 18.7516 21 18.1622 21H4.83778C4.2486 20.9997 3.68366 20.7655 3.26715 20.3487C2.85064 19.932 2.61667 19.367 2.61667 18.7778V9.46778M6.50222 7.38889L7.05778 1M6.50222 7.38889C6.50222 10.6133 11.5 10.6133 11.5 7.38889M6.50222 7.38889C6.50222 10.9178 0.774447 10.1889 1.57667 7.11333L2.73778 2.66111C2.86187 2.18559 3.14009 1.76461 3.52891 1.46405C3.91773 1.16349 4.39522 1.00029 4.88667 1H18.1133C18.6048 1.00029 19.0823 1.16349 19.4711 1.46405C19.8599 1.76461 20.1381 2.18559 20.2622 2.66111L21.4233 7.11333C22.2256 10.19 16.4978 10.9178 16.4978 7.38889M11.5 7.38889V1M11.5 7.38889C11.5 10.6133 16.4978 10.6133 16.4978 7.38889M16.4978 7.38889L15.9422 1" stroke="white" stroke-width="1.5" stroke-linecap="round" stroke-linejoin="round"/>
</svg>
