<svg width="25" height="26" viewBox="0 0 25 26" fill="none" xmlns="http://www.w3.org/2000/svg">
<path d="M9.99166 3.83339C9.82761 3.98138 9.65547 4.12013 9.47604 4.24902C9.16562 4.45735 8.81666 4.6011 8.44999 4.67402C8.29062 4.70527 8.12395 4.71881 7.79166 4.74485C6.95729 4.81152 6.53958 4.84485 6.19166 4.96777C5.79385 5.10822 5.43253 5.33596 5.13421 5.63428C4.8359 5.93259 4.60816 6.29391 4.4677 6.69173C4.34479 7.03964 4.31145 7.45735 4.24479 8.29173C4.23342 8.51232 4.20978 8.7321 4.17395 8.95006C4.10104 9.31673 3.95729 9.66569 3.74895 9.9761C3.65833 10.1115 3.54999 10.2386 3.33333 10.4917C2.79062 11.1292 2.51874 11.448 2.35937 11.7813C1.99166 12.5521 1.99166 13.448 2.35937 14.2188C2.51874 14.5521 2.79062 14.8709 3.33333 15.5084C3.54999 15.7615 3.65833 15.8886 3.74895 16.024C3.95729 16.3344 4.10104 16.6834 4.17395 17.0501C4.2052 17.2094 4.21874 17.3761 4.24479 17.7084C4.31145 18.5428 4.34479 18.9605 4.4677 19.3084C4.60816 19.7062 4.8359 20.0675 5.13421 20.3658C5.43253 20.6642 5.79385 20.8919 6.19166 21.0324C6.53958 21.1553 6.95729 21.1886 7.79166 21.2553C8.12395 21.2813 8.29062 21.2949 8.44999 21.3261C8.81666 21.399 9.16562 21.5438 9.47604 21.7511C9.61145 21.8417 9.73854 21.9501 9.99166 22.1667C10.6292 22.7094 10.9479 22.9813 11.2812 23.1407C12.0521 23.5084 12.9479 23.5084 13.7187 23.1407C14.0521 22.9813 14.3708 22.7094 15.0083 22.1667C15.2615 21.9501 15.3885 21.8417 15.524 21.7511C15.8344 21.5428 16.1833 21.399 16.55 21.3261C16.7094 21.2949 16.876 21.2813 17.2083 21.2553C18.0427 21.1886 18.4604 21.1553 18.8083 21.0324C19.2061 20.8919 19.5675 20.6642 19.8658 20.3658C20.1641 20.0675 20.3918 19.7062 20.5323 19.3084C20.6552 18.9605 20.6885 18.5428 20.7552 17.7084C20.7812 17.3761 20.7948 17.2094 20.826 17.0501C20.899 16.6834 21.0437 16.3344 21.251 16.024C21.3417 15.8886 21.45 15.7615 21.6667 15.5084C22.2094 14.8709 22.4812 14.5521 22.6406 14.2188C23.0083 13.448 23.0083 12.5521 22.6406 11.7813C22.4812 11.448 22.2094 11.1292 21.6667 10.4917C21.5184 10.3279 21.3797 10.1557 21.251 9.9761C21.0429 9.66556 20.8984 9.31682 20.826 8.95006C20.7902 8.7321 20.7666 8.51231 20.7552 8.29173C20.6885 7.45735 20.6552 7.03964 20.5323 6.69173C20.3918 6.29391 20.1641 5.93259 19.8658 5.63428C19.5675 5.33596 19.2061 5.10822 18.8083 4.96777C18.4604 4.84485 18.0427 4.81152 17.2083 4.74485C16.9877 4.73349 16.768 4.70984 16.55 4.67402C16.1832 4.60161 15.8345 4.45715 15.524 4.24902C15.3445 4.12013 15.1724 3.98137 15.0083 3.83339C14.3708 3.29068 14.0521 3.01881 13.7187 2.85943C13.3382 2.67754 12.9218 2.58313 12.5 2.58313C12.0782 2.58313 11.6618 2.67754 11.2812 2.85943C10.9479 3.01881 10.6292 3.29068 9.99166 3.83339Z" fill="#3A3AFF"/>
<path d="M17.0562 10.774C17.2108 10.6141 17.2963 10.3999 17.2944 10.1775C17.2924 9.9552 17.2033 9.74249 17.046 9.58526C16.8888 9.42803 16.6761 9.33886 16.4538 9.33695C16.2314 9.33504 16.0172 9.42055 15.8573 9.57505L10.8052 14.6271L9.14375 12.9657C8.98384 12.8112 8.76963 12.7257 8.54728 12.7276C8.32493 12.7295 8.11223 12.8187 7.955 12.9759C7.79777 13.1331 7.70859 13.3458 7.70668 13.5682C7.70477 13.7905 7.79028 14.0047 7.94479 14.1646L10.2052 16.4251C10.3642 16.5837 10.5796 16.6728 10.8042 16.6728C11.0287 16.6728 11.2442 16.5837 11.4031 16.4251L17.0562 10.774Z" fill="white"/>
</svg>
