<svg width="16" height="15" viewBox="0 0 16 15" fill="none" xmlns="http://www.w3.org/2000/svg">
<path d="M13.8726 0H1.68513C0.911697 0 0.278885 0.632812 0.278885 1.40625V13.5938C0.278885 14.3672 0.911697 15 1.68513 15H13.8726C14.6461 15 15.2789 14.3672 15.2789 13.5938V1.40625C15.2789 0.632812 14.6461 0 13.8726 0ZM2.85701 10.3125H2.38826L2.15388 8.90625L2.38826 7.5H2.85701L3.09138 8.90625L2.85701 10.3125ZM4.73201 10.3125H4.26326L4.02888 8.4375L4.26326 6.5625H4.73201L4.96638 8.4375L4.73201 10.3125ZM6.60701 10.3125H6.13826L5.90388 7.5L6.13826 4.6875H6.60701L6.84138 7.5L6.60701 10.3125ZM12.367 10.3125L7.95232 10.3097C7.90586 10.3043 7.86288 10.2824 7.83122 10.248C7.79955 10.2136 7.78131 10.1689 7.77982 10.1222V5.06531C7.77982 4.97156 7.8117 4.92469 7.9317 4.87781C8.33831 4.71979 8.7761 4.65851 9.21047 4.69883C9.64484 4.73915 10.0639 4.87996 10.4344 5.11012C10.805 5.34029 11.117 5.6535 11.3456 6.025C11.5743 6.3965 11.7134 6.8161 11.752 7.25063C11.9943 7.14953 12.2578 7.10982 12.5191 7.13502C12.7804 7.16021 13.0315 7.24953 13.25 7.39505C13.4685 7.54057 13.6477 7.73778 13.7717 7.96919C13.8957 8.20059 13.9606 8.45903 13.9608 8.72156C13.9608 9.60094 13.2464 10.3125 12.367 10.3125Z" fill="white" fill-opacity="0.8"/>
</svg>
