<svg width="16" height="15" viewBox="0 0 16 15" fill="none" xmlns="http://www.w3.org/2000/svg">
<path fill-rule="evenodd" clip-rule="evenodd" d="M12.7815 0H3.40651C1.85322 0 0.594009 1.25921 0.594009 2.8125V12.1875C0.594009 13.7408 1.85322 15 3.40651 15H12.7815C14.3348 15 15.594 13.7408 15.594 12.1875V2.8125C15.594 1.25921 14.3348 0 12.7815 0ZM12.4006 8.07829H10.9973V13.273H8.65256V8.07829H7.74269V6.32763H8.65256V5.2125C8.65256 3.75197 9.26046 2.88355 10.9815 2.88355H12.7262V4.62632H11.7118C11.0407 4.62632 10.9973 4.87697 10.9973 5.34276L10.9953 6.32566H12.5901L12.3986 8.07632L12.4006 8.07829Z" fill="white" fill-opacity="0.8"/>
</svg>
