<svg width="15" height="15" viewBox="0 0 15 15" fill="none" xmlns="http://www.w3.org/2000/svg">
<path d="M5.0004 7.5C5.0004 6.11934 6.11934 4.9998 7.5 4.9998C8.88066 4.9998 10.0002 6.11934 10.0002 7.5C10.0002 8.88066 8.88066 10.0002 7.5 10.0002C6.11934 10.0002 5.0004 8.88066 5.0004 7.5ZM3.64884 7.5C3.64884 9.627 5.373 11.3512 7.5 11.3512C9.627 11.3512 11.3512 9.627 11.3512 7.5C11.3512 5.373 9.627 3.64884 7.5 3.64884C5.373 3.64884 3.64884 5.373 3.64884 7.5ZM10.6036 3.49614C10.6035 3.67414 10.6563 3.84817 10.7551 3.99621C10.8539 4.14426 10.9944 4.25967 11.1589 4.32785C11.3233 4.39604 11.5043 4.41393 11.6788 4.37928C11.8534 4.34462 12.0138 4.25897 12.1398 4.13315C12.2657 4.00733 12.3515 3.847 12.3863 3.67243C12.4211 3.49787 12.4033 3.3169 12.3352 3.15242C12.2672 2.98794 12.1519 2.84733 12.0039 2.74838C11.856 2.64943 11.682 2.59657 11.504 2.5965H11.5036C11.265 2.59661 11.0362 2.69142 10.8675 2.8601C10.6987 3.02878 10.6038 3.25754 10.6036 3.49614ZM4.47 13.6048C3.73878 13.5715 3.34134 13.4497 3.07722 13.3468C2.72706 13.2105 2.47722 13.0481 2.21454 12.7858C1.95186 12.5235 1.78926 12.2739 1.65354 11.9237C1.55058 11.6597 1.42878 11.2622 1.39554 10.531C1.35918 9.7404 1.35192 9.50292 1.35192 7.50006C1.35192 5.4972 1.35978 5.26038 1.39554 4.46916C1.42884 3.73794 1.55154 3.34116 1.65354 3.07638C1.78986 2.72622 1.95222 2.47638 2.21454 2.2137C2.47686 1.95102 2.72646 1.78842 3.07722 1.6527C3.34122 1.54974 3.73878 1.42794 4.47 1.3947C5.26056 1.35834 5.49804 1.35108 7.5 1.35108C9.50196 1.35108 9.73968 1.35894 10.5309 1.3947C11.2621 1.428 11.6589 1.5507 11.9237 1.6527C12.2738 1.78842 12.5237 1.95138 12.7864 2.2137C13.049 2.47602 13.211 2.72622 13.3474 3.07638C13.4503 3.34038 13.5721 3.73794 13.6054 4.46916C13.6417 5.26038 13.649 5.4972 13.649 7.50006C13.649 9.50292 13.6417 9.73974 13.6054 10.531C13.5721 11.2622 13.4497 11.6596 13.3474 11.9237C13.211 12.2739 13.0487 12.5237 12.7864 12.7858C12.524 13.0479 12.2738 13.2105 11.9237 13.3468C11.6597 13.4498 11.2621 13.5716 10.5309 13.6048C9.74034 13.6412 9.50286 13.6484 7.5 13.6484C5.49714 13.6484 5.26032 13.6412 4.47 13.6048ZM4.4079 0.04542C3.60948 0.08178 3.0639 0.20838 2.58744 0.39378C2.094 0.58524 1.67628 0.8421 1.25886 1.25886C0.84144 1.67562 0.58524 2.094 0.39378 2.58744C0.20838 3.0642 0.08178 3.60948 0.04542 4.4079C0.00846 5.20758 0 5.46324 0 7.5C0 9.53676 0.00846 9.79242 0.04542 10.5921C0.08178 11.3906 0.20838 11.9358 0.39378 12.4126C0.58524 12.9057 0.8415 13.3246 1.25886 13.7411C1.67622 14.1577 2.094 14.4142 2.58744 14.6062C3.0648 14.7916 3.60948 14.9182 4.4079 14.9546C5.208 14.9909 5.46324 15 7.5 15C9.53676 15 9.79242 14.9915 10.5921 14.9546C11.3906 14.9182 11.9358 14.7916 12.4126 14.6062C12.9057 14.4142 13.3237 14.1579 13.7411 13.7411C14.1586 13.3244 14.4142 12.9057 14.6062 12.4126C14.7916 11.9358 14.9188 11.3905 14.9546 10.5921C14.9909 9.79182 14.9994 9.53676 14.9994 7.5C14.9994 5.46324 14.9909 5.20758 14.9546 4.4079C14.9182 3.60942 14.7916 3.0639 14.6062 2.58744C14.4142 2.0943 14.1579 1.67628 13.7411 1.25886C13.3244 0.84144 12.9057 0.58524 12.4132 0.39378C11.9358 0.20838 11.3905 0.08118 10.5927 0.04542C9.79302 0.00906 9.53736 0 7.5006 0C5.46384 0 5.208 0.00846 4.4079 0.04542Z" fill="white" fill-opacity="0.8"/>
<path d="M5.0004 7.5C5.0004 6.11934 6.11934 4.9998 7.5 4.9998C8.88066 4.9998 10.0002 6.11934 10.0002 7.5C10.0002 8.88066 8.88066 10.0002 7.5 10.0002C6.11934 10.0002 5.0004 8.88066 5.0004 7.5ZM3.64884 7.5C3.64884 9.627 5.373 11.3512 7.5 11.3512C9.627 11.3512 11.3512 9.627 11.3512 7.5C11.3512 5.373 9.627 3.64884 7.5 3.64884C5.373 3.64884 3.64884 5.373 3.64884 7.5ZM10.6036 3.49614C10.6035 3.67414 10.6563 3.84817 10.7551 3.99621C10.8539 4.14426 10.9944 4.25967 11.1589 4.32785C11.3233 4.39604 11.5043 4.41393 11.6788 4.37928C11.8534 4.34462 12.0138 4.25897 12.1398 4.13315C12.2657 4.00733 12.3515 3.847 12.3863 3.67243C12.4211 3.49787 12.4033 3.3169 12.3352 3.15242C12.2672 2.98794 12.1519 2.84733 12.0039 2.74838C11.856 2.64943 11.682 2.59657 11.504 2.5965H11.5036C11.265 2.59661 11.0362 2.69142 10.8675 2.8601C10.6987 3.02878 10.6038 3.25754 10.6036 3.49614ZM4.47 13.6048C3.73878 13.5715 3.34134 13.4497 3.07722 13.3468C2.72706 13.2105 2.47722 13.0481 2.21454 12.7858C1.95186 12.5235 1.78926 12.2739 1.65354 11.9237C1.55058 11.6597 1.42878 11.2622 1.39554 10.531C1.35918 9.7404 1.35192 9.50292 1.35192 7.50006C1.35192 5.4972 1.35978 5.26038 1.39554 4.46916C1.42884 3.73794 1.55154 3.34116 1.65354 3.07638C1.78986 2.72622 1.95222 2.47638 2.21454 2.2137C2.47686 1.95102 2.72646 1.78842 3.07722 1.6527C3.34122 1.54974 3.73878 1.42794 4.47 1.3947C5.26056 1.35834 5.49804 1.35108 7.5 1.35108C9.50196 1.35108 9.73968 1.35894 10.5309 1.3947C11.2621 1.428 11.6589 1.5507 11.9237 1.6527C12.2738 1.78842 12.5237 1.95138 12.7864 2.2137C13.049 2.47602 13.211 2.72622 13.3474 3.07638C13.4503 3.34038 13.5721 3.73794 13.6054 4.46916C13.6417 5.26038 13.649 5.4972 13.649 7.50006C13.649 9.50292 13.6417 9.73974 13.6054 10.531C13.5721 11.2622 13.4497 11.6596 13.3474 11.9237C13.211 12.2739 13.0487 12.5237 12.7864 12.7858C12.524 13.0479 12.2738 13.2105 11.9237 13.3468C11.6597 13.4498 11.2621 13.5716 10.5309 13.6048C9.74034 13.6412 9.50286 13.6484 7.5 13.6484C5.49714 13.6484 5.26032 13.6412 4.47 13.6048ZM4.4079 0.04542C3.60948 0.08178 3.0639 0.20838 2.58744 0.39378C2.094 0.58524 1.67628 0.8421 1.25886 1.25886C0.84144 1.67562 0.58524 2.094 0.39378 2.58744C0.20838 3.0642 0.08178 3.60948 0.04542 4.4079C0.00846 5.20758 0 5.46324 0 7.5C0 9.53676 0.00846 9.79242 0.04542 10.5921C0.08178 11.3906 0.20838 11.9358 0.39378 12.4126C0.58524 12.9057 0.8415 13.3246 1.25886 13.7411C1.67622 14.1577 2.094 14.4142 2.58744 14.6062C3.0648 14.7916 3.60948 14.9182 4.4079 14.9546C5.208 14.9909 5.46324 15 7.5 15C9.53676 15 9.79242 14.9915 10.5921 14.9546C11.3906 14.9182 11.9358 14.7916 12.4126 14.6062C12.9057 14.4142 13.3237 14.1579 13.7411 13.7411C14.1586 13.3244 14.4142 12.9057 14.6062 12.4126C14.7916 11.9358 14.9188 11.3905 14.9546 10.5921C14.9909 9.79182 14.9994 9.53676 14.9994 7.5C14.9994 5.46324 14.9909 5.20758 14.9546 4.4079C14.9182 3.60942 14.7916 3.0639 14.6062 2.58744C14.4142 2.0943 14.1579 1.67628 13.7411 1.25886C13.3244 0.84144 12.9057 0.58524 12.4132 0.39378C11.9358 0.20838 11.3905 0.08118 10.5927 0.04542C9.79302 0.00906 9.53736 0 7.5006 0C5.46384 0 5.208 0.00846 4.4079 0.04542Z" fill="white" fill-opacity="0.8"/>
</svg>
