<svg width="23" height="15" viewBox="0 0 23 15" fill="none" xmlns="http://www.w3.org/2000/svg">
<path d="M11.9167 14.9808L7.46789 14.8994C6.02743 14.8711 4.58343 14.9277 3.17128 14.6339C1.02297 14.1951 0.870785 12.0432 0.71152 10.2382C0.492088 7.70061 0.57703 5.11698 0.991118 2.60059C1.22471 1.18844 2.1449 0.346109 3.56767 0.254089C8.37039 -0.0785976 13.205 -0.0396662 17.9971 0.116059C18.5032 0.130216 19.0128 0.208079 19.5119 0.29656C21.9752 0.728344 22.0353 3.16687 22.1946 5.21961C22.3538 7.2936 22.2866 9.3782 21.9822 11.438C21.738 13.1439 21.2708 14.5738 19.2995 14.7118C16.8291 14.8923 14.4154 15.0374 11.9379 14.9914C11.9379 14.9808 11.9238 14.9808 11.9167 14.9808ZM9.30121 10.6629C11.1628 9.59409 12.9891 8.54294 14.8401 7.48117C12.9749 6.41233 11.1522 5.36118 9.30121 4.29942V10.6629Z" fill="white" fill-opacity="0.8"/>
</svg>
