<svg width="20" height="21" viewBox="0 0 20 21" fill="none" xmlns="http://www.w3.org/2000/svg">
<g clip-path="url(#clip0_25_48)">
<path d="M17.7778 3.27783H3.61111L10.5556 8.00005H20V5.50005C20 4.91068 19.7659 4.34545 19.3491 3.92871C18.9324 3.51196 18.3672 3.27783 17.7778 3.27783Z" fill="#DE3830"/>
<path d="M3.61111 17.7222H17.7778C18.3672 17.7222 18.9324 17.4881 19.3491 17.0713C19.7659 16.6546 20 16.0894 20 15.5V13H10.5556L3.61111 17.7222Z" fill="#002395"/>
<path d="M0 6.61108V14.3889L5.83333 10.5L0 6.61108Z" fill="#141414"/>
<path d="M0 5.5V6.61111L5.83333 10.5L0 14.3889V15.5L7.5 10.5L0 5.5Z" fill="#FFB611"/>
<path d="M1.96722 3.29333C1.42576 3.35588 0.926168 3.61525 0.563457 4.02211C0.200746 4.42896 0.000214979 4.95494 0 5.5L7.5 10.5L0 15.5C0.000214979 16.0451 0.200746 16.571 0.563457 16.9779C0.926168 17.3848 1.42576 17.6441 1.96722 17.7067L10.2778 11.8889H20V9.11111H10.2778L1.96722 3.29333Z" fill="#007A4D"/>
<path d="M3.61111 3.27783H2.22222C2.13556 3.27783 2.05111 3.28394 1.96722 3.29339L10.2778 9.11117H20V8.00005H10.5556L3.61111 3.27783ZM1.96722 17.7067C2.05111 17.7162 2.13556 17.7223 2.22222 17.7223H3.61111L10.5556 13.0001H20V11.8889H10.2778L1.96722 17.7067Z" fill="#EEEEEE"/>
</g>
<defs>
<clipPath id="clip0_25_48">
<rect width="20" height="20" fill="white" transform="translate(0 0.5)"/>
</clipPath>
</defs>
</svg>
